<?xml version="1.0" encoding="UTF-8"?>
<svg version="1.1" xmlns="http://www.w3.org/2000/svg" width="128" height="128">
<path d="M0 0 C2.23748198 0.0009705 4.47151114 -0.04060565 6.70849609 -0.08496094 C8.13687439 -0.09016983 9.56526456 -0.0928561 10.99365234 -0.09277344 C12.93667236 -0.1034082 12.93667236 -0.1034082 14.91894531 -0.11425781 C19.24099698 0.65481225 20.68423137 2.10487076 23.37646484 5.50097656 C24.58724185 9.13330758 24.50090649 12.45219643 24.47412109 16.23144531 C24.47270615 16.981866 24.4712912 17.73228668 24.46983337 18.50544739 C24.46424044 20.89983117 24.45168928 23.29412109 24.43896484 25.68847656 C24.43394893 27.31282417 24.42938618 28.93717324 24.42529297 30.56152344 C24.41427333 34.54137725 24.39701358 38.521161 24.37646484 42.50097656 C25.88213013 42.47741089 25.88213013 42.47741089 27.41821289 42.45336914 C31.15478439 42.39892543 34.89132105 42.3645743 38.62817383 42.33618164 C40.24314273 42.32112781 41.85807098 42.30068008 43.47290039 42.2746582 C45.7989304 42.2381237 48.12441825 42.22121642 50.45068359 42.20800781 C51.5275367 42.18478203 51.5275367 42.18478203 52.62614441 42.16108704 C57.0933396 42.15959917 59.81553851 42.78953282 63.37646484 45.50097656 C63.96492188 45.91105957 64.55337891 46.32114258 65.15966797 46.74365234 C68.00821976 50.85759211 66.89245064 57.2304285 66.87744141 62.12451172 C66.87647091 64.3619937 66.91804706 66.59602286 66.96240234 68.83300781 C66.96761124 70.26138611 66.97029751 71.68977627 66.97021484 73.11816406 C66.97730469 74.41351074 66.98439453 75.70885742 66.99169922 77.04345703 C66.22262916 81.3655087 64.77257065 82.80874309 61.37646484 85.50097656 C57.74413382 86.71175357 54.42524497 86.6254182 50.64599609 86.59863281 C49.89557541 86.59721786 49.14515472 86.59580292 48.37199402 86.59434509 C45.97761024 86.58875216 43.58332031 86.576201 41.18896484 86.56347656 C39.56461724 86.55846065 37.94026816 86.5538979 36.31591797 86.54980469 C32.33606415 86.53878505 28.35628041 86.5215253 24.37646484 86.50097656 C24.39217529 87.50475342 24.40788574 88.50853027 24.42407227 89.54272461 C24.47851598 93.27929611 24.5128671 97.01583277 24.54125977 100.75268555 C24.5563136 102.36765445 24.57676132 103.98258269 24.6027832 105.59741211 C24.63931771 107.92344211 24.65622499 110.24892997 24.66943359 112.57519531 C24.68491745 113.29309738 24.70040131 114.01099945 24.71635437 114.75065613 C24.71784223 119.21785131 24.08790858 121.94005023 21.37646484 125.50097656 C20.76134033 126.38366211 20.76134033 126.38366211 20.13378906 127.28417969 C16.0198493 130.13273148 9.64701291 129.01696236 4.75292969 129.00195312 C2.51544771 129.00098263 0.28141855 129.04255878 -1.95556641 129.08691406 C-3.3839447 129.09212295 -4.81233487 129.09480923 -6.24072266 129.09472656 C-7.53606934 129.10181641 -8.83141602 129.10890625 -10.16601562 129.11621094 C-14.48806729 128.34714088 -15.93130169 126.89708237 -18.62353516 123.50097656 C-19.83431216 119.86864554 -19.7479768 116.54975669 -19.72119141 112.77050781 C-19.71977646 112.02008713 -19.71836151 111.26966644 -19.71690369 110.49650574 C-19.71131075 108.10212196 -19.6987596 105.70783203 -19.68603516 103.31347656 C-19.68101924 101.68912896 -19.67645649 100.06477988 -19.67236328 98.44042969 C-19.66134364 94.46057587 -19.64408389 90.48079213 -19.62353516 86.50097656 C-20.62731201 86.51668701 -21.63108887 86.53239746 -22.6652832 86.54858398 C-26.4018547 86.6030277 -30.13839137 86.63737882 -33.87524414 86.66577148 C-35.49021304 86.68082532 -37.10514129 86.70127304 -38.7199707 86.72729492 C-41.04600071 86.76382942 -43.37148857 86.78073671 -45.69775391 86.79394531 C-46.77460701 86.8171711 -46.77460701 86.8171711 -47.87321472 86.84086609 C-52.34040991 86.84235395 -55.06260883 86.2124203 -58.62353516 83.50097656 C-59.5062207 82.88585205 -59.5062207 82.88585205 -60.40673828 82.25830078 C-63.25529007 78.14436102 -62.13952096 71.77152463 -62.12451172 66.87744141 C-62.12354122 64.63995943 -62.16511737 62.40593027 -62.20947266 60.16894531 C-62.21468155 58.74056702 -62.21736782 57.31217685 -62.21728516 55.88378906 C-62.224375 54.58844238 -62.23146484 53.2930957 -62.23876953 51.95849609 C-61.46969947 47.63644443 -60.01964096 46.19321003 -56.62353516 43.50097656 C-52.99120413 42.29019956 -49.67231529 42.37653492 -45.89306641 42.40332031 C-44.76743538 42.40544273 -44.76743538 42.40544273 -43.61906433 42.40760803 C-41.22468055 42.41320097 -38.83039063 42.42575212 -36.43603516 42.43847656 C-34.81168755 42.44349248 -33.18733848 42.44805523 -31.56298828 42.45214844 C-27.58313447 42.46316808 -23.60335072 42.48042783 -19.62353516 42.50097656 C-19.63924561 41.49719971 -19.65495605 40.49342285 -19.67114258 39.45922852 C-19.72558629 35.72265702 -19.75993742 31.98612035 -19.78833008 28.24926758 C-19.80338391 26.63429867 -19.82383164 25.01937043 -19.84985352 23.40454102 C-19.88638802 21.07851101 -19.9032953 18.75302315 -19.91650391 16.42675781 C-19.93198776 15.70885574 -19.94747162 14.99095367 -19.96342468 14.251297 C-19.96491255 9.78410181 -19.33497889 7.06190289 -16.62353516 3.50097656 C-16.21345215 2.91251953 -15.80336914 2.3240625 -15.38085938 1.71777344 C-11.26691961 -1.13077835 -4.89408322 -0.01500924 0 0 Z M1.37646484 11.50097656 C-0.28468773 13.40407321 -1.80428759 15.29438825 -3.31103516 17.31347656 C-3.73964844 17.86068359 -4.16826172 18.40789063 -4.60986328 18.97167969 C-5.98991066 20.75354906 -5.98991066 20.75354906 -7.62353516 23.50097656 C-7.29353516 24.49097656 -6.96353516 25.48097656 -6.62353516 26.50097656 C-0.68353516 26.50097656 5.25646484 26.50097656 11.37646484 26.50097656 C11.70646484 25.51097656 12.03646484 24.52097656 12.37646484 23.50097656 C11.01417842 21.29354065 9.653958 19.34340768 8.06396484 17.31347656 C7.64695312 16.75466797 7.22994141 16.19585937 6.80029297 15.62011719 C5.71496104 14.20243481 4.55055538 12.8460714 3.37646484 11.50097656 C2.71646484 11.50097656 2.05646484 11.50097656 1.37646484 11.50097656 Z M-10.99853516 56.12597656 C-13.20261409 60.70367896 -13.42069906 64.50650067 -12.62353516 69.50097656 C-10.29384585 74.33956205 -7.46212064 77.17128726 -2.62353516 79.50097656 C2.37094074 80.29814047 6.17376245 80.08005549 10.75146484 77.87597656 C14.33554198 74.63324011 16.97181725 72.0362176 17.75927734 67.10253906 C18.01530403 61.41874662 17.31273416 57.85159002 13.37646484 53.50097656 C9.02585139 49.56470725 5.45869478 48.86213738 -0.22509766 49.11816406 C-5.15877619 49.90562415 -7.7557987 52.54189943 -10.99853516 56.12597656 Z M-38.62353516 54.50097656 C-40.81983026 55.90931037 -42.78423405 57.31751313 -44.81103516 58.93847656 C-45.36984375 59.37224609 -45.92865234 59.80601563 -46.50439453 60.25292969 C-47.88462348 61.32644109 -49.25504055 62.41254596 -50.62353516 63.50097656 C-49.12943158 67.30798624 -47.00484746 68.9985928 -43.68603516 71.31347656 C-42.373125 72.25126953 -42.373125 72.25126953 -41.03369141 73.20800781 C-40.23833984 73.6346875 -39.44298828 74.06136719 -38.62353516 74.50097656 C-37.63353516 74.17097656 -36.64353516 73.84097656 -35.62353516 73.50097656 C-35.62353516 67.56097656 -35.62353516 61.62097656 -35.62353516 55.50097656 C-36.61353516 55.17097656 -37.60353516 54.84097656 -38.62353516 54.50097656 Z M41.37646484 54.50097656 C40.18304732 55.47429917 40.18304732 55.47429917 40.26293945 57.2668457 C40.26817627 58.01571045 40.27341309 58.7645752 40.27880859 59.53613281 C40.28203125 60.34501953 40.28525391 61.15390625 40.28857422 61.98730469 C40.29695313 62.83744141 40.30533203 63.68757813 40.31396484 64.56347656 C40.31847656 65.41748047 40.32298828 66.27148438 40.32763672 67.15136719 C40.33946111 69.2679332 40.35739716 71.38446341 40.37646484 73.50097656 C41.36646484 73.83097656 42.35646484 74.16097656 43.37646484 74.50097656 C45.57275995 73.09264275 47.53716373 71.68443999 49.56396484 70.06347656 C50.12277344 69.62970703 50.68158203 69.1959375 51.25732422 68.74902344 C52.63755316 67.67551204 54.00797023 66.58940716 55.37646484 65.50097656 C53.88257191 61.6643879 51.74023465 60.03912231 48.37646484 57.75097656 C47.48958984 57.13738281 46.60271484 56.52378906 45.68896484 55.89160156 C43.54054171 54.32919422 43.54054171 54.32919422 41.37646484 54.50097656 Z M-6.62353516 102.50097656 C-6.95353516 103.49097656 -7.28353516 104.48097656 -7.62353516 105.50097656 C-6.21520135 107.69727167 -4.80699859 109.66167545 -3.18603516 111.68847656 C-2.75226562 112.24728516 -2.31849609 112.80609375 -1.87158203 113.38183594 C-0.79807063 114.76206488 0.28803425 116.13248195 1.37646484 117.50097656 C5.18347452 116.00687298 6.87408108 113.88228886 9.18896484 110.56347656 C9.81416016 109.68820313 10.43935547 108.81292969 11.08349609 107.91113281 C11.51017578 107.11578125 11.93685547 106.32042969 12.37646484 105.50097656 C12.04646484 104.51097656 11.71646484 103.52097656 11.37646484 102.50097656 C5.43646484 102.50097656 -0.50353516 102.50097656 -6.62353516 102.50097656 Z " fill="#FFFFFF" transform="translate(61.62353515625,-0.5009765625)"/>
</svg>
