<?xml version="1.0" encoding="UTF-8"?>
<svg version="1.1" xmlns="http://www.w3.org/2000/svg" width="64" height="64">
<path d="M0 0 C2.77746418 1.38873209 2.7714355 2.8486421 3.75 5.75 C5.90486229 11.41258924 8.52107361 14.26053681 14 17 C14 17.66 14 18.32 14 19 C13.0925 19.5775 12.185 20.155 11.25 20.75 C5.66903202 24.61374707 3.44371987 29.89070033 1 36 C-0.00561897 34.01534229 -0.98602294 32.03125003 -1.89453125 30 C-4.27146244 24.8213244 -6.77131324 21.61434338 -12 19 C-12 18.34 -12 17.68 -12 17 C-11.0925 16.4225 -10.185 15.845 -9.25 15.25 C-3.51259979 11.2779537 -1.56673663 6.5280693 0 0 Z " fill="#8639C4" transform="translate(25,1)"/>
<path d="M0 0 C0.391875 0.556875 0.78375 1.11375 1.1875 1.6875 C3.03593103 4.15062867 3.03593103 4.15062867 5.6875 6.625 C8 9 8 9 8 11 C7.21625 11.763125 6.4325 12.52625 5.625 13.3125 C3.09947479 15.89815676 2.06592614 17.60841682 1 21 C0.608125 20.46375 0.21625 19.9275 -0.1875 19.375 C-1.63664241 17.47612374 -3.12903286 15.68140509 -4.6875 13.875 C-7 11 -7 11 -7 9 C-5.33333333 7.33333333 -3.66666667 5.66666667 -2 4 C-0.70480005 1.83379456 -0.70480005 1.83379456 0 0 Z " fill="#8938C5" transform="translate(45,42)"/>
<path d="M0 0 C2 2 2 2 3.4375 5 C4.80851764 8.22025543 4.80851764 8.22025543 8 10 C8 10.66 8 11.32 8 12 C6.33333333 13.66666667 4.66666667 15.33333333 3 17 C1.70480005 19.16620544 1.70480005 19.16620544 1 21 C0.608125 20.443125 0.21625 19.88625 -0.1875 19.3125 C-2.2692458 16.6564795 -4.58333422 14.35135049 -7 12 C-6 9 -6 9 -4.0625 7.125 C-1.85208757 4.84760538 -0.99430634 2.98291902 0 0 Z " fill="#8838C5" transform="translate(9,33)"/>
<path d="M0 0 C0.66 0.99 1.32 1.98 2 3 C2.87072072 4.23220174 3.74584102 5.46130459 4.625 6.6875 C5.07101563 7.31011719 5.51703125 7.93273437 5.9765625 8.57421875 C6.31429687 9.04472656 6.65203125 9.51523437 7 10 C5.76302083 11.46484375 4.52604167 12.9296875 3.2890625 14.39453125 C2.10798901 15.8655046 1.04641471 17.43037794 0 19 C-0.598125 17.906875 -1.19625 16.81375 -1.8125 15.6875 C-3.29044697 13.08925871 -4.69822933 10.95650507 -7 9 C-6.21625 8.2575 -5.4325 7.515 -4.625 6.75 C-2.43495469 4.45566682 -1.17268614 2.87841142 0 0 Z " fill="#8938C6" transform="translate(55,11)"/>
</svg>
